<svg width="142" height="52" viewBox="0 0 142 52" fill="none" xmlns="http://www.w3.org/2000/svg">
<path d="M141.147 20V37.9788H137V20H141.147Z" fill="#203066"/>
<path d="M135.848 31.1839C135.848 31.5726 135.823 31.9776 135.775 32.3987H126.387C126.452 33.2409 126.719 33.8888 127.188 34.3423C127.673 34.7797 128.263 34.9983 128.959 34.9983C129.994 34.9983 130.713 34.561 131.118 33.6864H135.532C135.306 34.5772 134.894 35.379 134.295 36.0916C133.713 36.8043 132.977 37.3631 132.088 37.768C131.198 38.173 130.204 38.3754 129.104 38.3754C127.778 38.3754 126.598 38.092 125.563 37.5251C124.528 36.9582 123.719 36.1483 123.137 35.0955C122.555 34.0427 122.264 32.8117 122.264 31.4026C122.264 29.9934 122.547 28.7624 123.113 27.7096C123.695 26.6568 124.503 25.8469 125.538 25.28C126.573 24.7131 127.762 24.4297 129.104 24.4297C130.414 24.4297 131.578 24.705 132.597 25.2557C133.616 25.8064 134.408 26.592 134.974 27.6124C135.557 28.6328 135.848 29.8233 135.848 31.1839ZM131.603 30.0906C131.603 29.3779 131.36 28.811 130.875 28.3899C130.39 27.9688 129.783 27.7582 129.056 27.7582C128.36 27.7582 127.77 27.9607 127.285 28.3656C126.816 28.7705 126.525 29.3455 126.412 30.0906H131.603Z" fill="#203066"/>
<path d="M116.174 34.2927L119.11 24.623H123.524L118.721 38.1801H113.603L108.8 24.623H113.239L116.174 34.2927Z" fill="#203066"/>
<path d="M93.9829 31.3783C93.9829 29.9853 94.2416 28.7624 94.7591 27.7096C95.2928 26.6568 96.0124 25.8469 96.918 25.28C97.8236 24.7131 98.8343 24.4297 99.9502 24.4297C100.904 24.4297 101.737 24.6241 102.449 25.0128C103.176 25.4015 103.734 25.9117 104.122 26.5434V24.6241H108.27V38.1811H104.122V36.2617C103.718 36.8934 103.152 37.4036 102.424 37.7923C101.713 38.1811 100.88 38.3754 99.9259 38.3754C98.8262 38.3754 97.8236 38.092 96.918 37.5251C96.0124 36.942 95.2928 36.124 94.7591 35.0712C94.2416 34.0022 93.9829 32.7712 93.9829 31.3783ZM104.122 31.4026C104.122 30.3659 103.831 29.548 103.249 28.9487C102.683 28.3494 101.988 28.0498 101.163 28.0498C100.338 28.0498 99.6348 28.3494 99.0526 28.9487C98.4866 29.5318 98.2036 30.3416 98.2036 31.3783C98.2036 32.4149 98.4866 33.2409 99.0526 33.8564C99.6348 34.4557 100.338 34.7554 101.163 34.7554C101.988 34.7554 102.683 34.4557 103.249 33.8564C103.831 33.2571 104.122 32.4392 104.122 31.4026Z" fill="#203066"/>
<path d="M89.7617 26.8818C90.2469 26.1368 90.8533 25.5537 91.581 25.1325C92.3087 24.6952 93.1173 24.4766 94.0067 24.4766V28.8741H92.8666C91.8317 28.8741 91.0554 29.1008 90.538 29.5544C90.0205 29.9917 89.7617 30.7692 89.7617 31.8868V38.1793H85.6138V24.6223H89.7617V26.8818Z" fill="#203066"/>
<path d="M85.7161 21.125V24.4535H81.2042V38.1806H77.0563V24.4535H72.5444V21.125H85.7161Z" fill="#203066"/>
<path d="M8 14.5H64C67.5898 14.5 70.5 17.4101 70.5 21V34C70.5 37.5899 67.5898 40.5 64 40.5H8C4.41015 40.5 1.5 37.5899 1.5 34V21C1.5 17.4101 4.41015 14.5 8 14.5Z" fill="#FFF3E4" stroke="#FFE9CD"/>
<path d="M69.8929 21.582L59.5249 46.0005L54.5 46.001L54.0743 46.0005L57.866 37.5742L51.1416 21.582H56.7996L60.6209 31.9369L64.4127 21.582H69.8929Z" fill="#EC2027" stroke="#EC2027" stroke-width="0.5"/>
<path d="M56.8401 39.4947L53.5001 45.502L59 45.5013L70 21.5013L57.8644 37.5425L57.8472 37.5754L56.8401 39.4947Z" fill="#203066" stroke="#203066" stroke-width="0.4"/>
<path d="M51.5 17.3086V38.137H46.4345V25.6459L41.7837 38.137H37.6957L33.0153 25.6162V38.137H27.9498V17.3086H33.9336L39.7693 31.7282L45.5458 17.3086H51.5Z" fill="#EC2027" stroke="#EC2027" stroke-width="0.5"/>
<path d="M14.0811 38.3445C12.126 38.3445 10.3288 37.8895 8.6897 36.9796C7.07032 36.0698 5.77679 34.8038 4.80911 33.1819C3.86117 31.5401 3.38721 29.7006 3.38721 27.6633C3.38721 25.6259 3.86117 23.7963 4.80911 22.1743C5.77679 20.5523 7.07032 19.2864 8.6897 18.3765C10.3288 17.4667 12.126 17.0117 14.0811 17.0117C16.0362 17.0117 17.8234 17.4667 19.4428 18.3765C21.0819 19.2864 22.3656 20.5523 23.2938 22.1743C24.2417 23.7963 24.7157 25.6259 24.7157 27.6633C24.7157 29.7006 24.2417 31.5401 23.2938 33.1819C22.3458 34.8038 21.0622 36.0698 19.4428 36.9796C17.8234 37.8895 16.0362 38.3445 14.0811 38.3445ZM14.0811 33.7159C15.7399 33.7159 17.0631 33.1621 18.0505 32.0544C19.0577 30.9467 19.5613 29.483 19.5613 27.6633C19.5613 25.8237 19.0577 24.36 18.0505 23.2721C17.0631 22.1644 15.7399 21.6106 14.0811 21.6106C12.4024 21.6106 11.0595 22.1545 10.0524 23.2424C9.06493 24.3303 8.57121 25.8039 8.57121 27.6633C8.57121 29.5028 9.06493 30.9764 10.0524 32.0841C11.0595 33.172 12.4024 33.7159 14.0811 33.7159Z" fill="#EC2027" stroke="#EC2027" stroke-width="0.5"/>
<mask id="mask0_3273_3618" style="mask-type:alpha" maskUnits="userSpaceOnUse" x="3" y="11" width="27" height="20">
<path d="M22.0699 13.8041C17.3026 15.2875 11.7005 15.8742 7.57743 18.8309C6.49173 19.6175 5.68018 20.5993 5.0525 21.5497C4.42483 22.5 3.97168 23.5597 3.69531 24.6522C3.14608 26.8233 3.35289 29.5015 3.69503 30.5033C7.57743 20.976 15.1455 17.7336 15.1455 17.525C17.4799 16.4285 19.8961 15.4879 22.3404 14.6231C24.7851 13.7549 27.2648 12.9753 29.7618 12.2503C29.8228 12.2327 29.8837 12.2159 29.9448 12.1983C29.8089 12.0493 29.6745 11.9014 29.54 11.7544C27.0352 12.3703 24.5412 13.0399 22.0699 13.8041Z" fill="#003172"/>
</mask>
<g mask="url(#mask0_3273_3618)">
<path d="M14.0811 38.3464C12.126 38.3464 10.3288 37.8915 8.6897 36.9816C7.07032 36.0717 5.77679 34.8058 4.80911 33.1838C3.86117 31.5421 3.38721 29.7025 3.38721 27.6652C3.38721 25.6279 3.86117 23.7982 4.80911 22.1763C5.77679 20.5543 7.07032 19.2884 8.6897 18.3785C10.3288 17.4686 12.126 17.0137 14.0811 17.0137C16.0362 17.0137 17.8234 17.4686 19.4428 18.3785C21.0819 19.2884 22.3656 20.5543 23.2938 22.1763C24.2417 23.7982 24.7157 25.6279 24.7157 27.6652C24.7157 29.7025 24.2417 31.5421 23.2938 33.1838C22.3458 34.8058 21.0622 36.0717 19.4428 36.9816C17.8234 37.8915 16.0362 38.3464 14.0811 38.3464ZM14.0811 33.7179C15.74 33.7179 17.0631 33.1641 18.0505 32.0564C19.0577 30.9487 19.5613 29.485 19.5613 27.6652C19.5613 25.8257 19.0577 24.3619 18.0505 23.274C17.0631 22.1664 15.74 21.6125 14.0811 21.6125C12.4024 21.6125 11.0595 22.1565 10.0524 23.2444C9.06493 24.3323 8.57121 25.8059 8.57121 27.6652C8.57121 29.5047 9.06493 30.9784 10.0524 32.086C11.0595 33.1739 12.4024 33.7179 14.0811 33.7179Z" fill="#203066"/>
</g>
<path d="M27.9916 7.82208C25.9889 9.46891 9.71626 20.2819 3.69336 30.4863L8.10822 18.7338C10.1706 17.1723 25.3152 8.25067 27.4597 6.81708C27.6362 6.90941 27.813 7.0026 27.9916 7.09628C27.9402 7.13367 27.8886 7.17022 27.8373 7.20761C28.3075 7.20761 28.5079 7.39751 27.9916 7.82208Z" fill="#203066"/>
<path d="M30.3001 14.6477L31.5487 13.7839L30.9993 6.31708L34.4329 3.94149C34.9511 3.58299 35.08 2.87527 34.7216 2.35703C34.3631 1.8388 33.6555 1.70986 33.1373 2.06836L29.7037 4.44395L22.9112 1.29639L21.6626 2.16024L26.8943 6.38761L23.4607 8.76321L21.4445 7.85016L20.5081 8.49804L22.8599 10.5636L23.9631 13.493L24.8995 12.8452L24.7563 10.6363L28.1899 8.26074L30.3001 14.6477Z" fill="#203066"/>
</svg>
